# WaveFront *.obj file (generated by Autodesk ATF)

mtllib Untitled.mtl

g Body1

v 5.000000 -1.500000 8.000000
v 5.000000 -2.500000 10.000000
v -5.000000 -2.500000 10.000000
v -5.000000 -1.500000 8.000000
v -5.000000 0.000000 10.000000
v -5.000000 0.000000 0.000000
v -5.000000 -5.000000 0.000000
v -5.000000 -5.000000 4.284504
v -5.000000 -1.500000 5.222326
v 5.000000 -1.500000 5.222326
v 5.000000 0.000000 10.000000
v 5.000000 -5.000000 4.284504
v 5.000000 -5.000000 0.000000
v 5.000000 0.000000 0.000000
vt 1.118034 7.500000 0.000000
vt -1.118034 7.500000 0.000000
vt 1.118034 -2.500000 0.000000
vt -1.118034 -2.500000 0.000000
vt 2.500000 10.000000 0.000000
vt 0.000000 10.000000 0.000000
vt 1.500000 8.000000 0.000000
vt 1.500000 5.222326 0.000000
vt 0.000000 0.000000 0.000000
vt 5.000000 0.000000 0.000000
vt 5.000000 4.284504 0.000000
vt 10.000000 3.000000 0.000000
vt 0.000000 3.000000 0.000000
vt 10.000000 0.222326 0.000000
vt 0.000000 0.222326 0.000000
vt 5.000000 0.750000 0.000000
vt -5.000000 0.750000 0.000000
vt 5.000000 -1.750000 0.000000
vt -5.000000 -1.750000 0.000000
vt 5.000000 1.029270 0.000000
vt -5.000000 1.029270 0.000000
vt 5.000000 -2.594197 0.000000
vt -5.000000 -2.594197 0.000000
vt 0.000000 0.000000 0.000000
vt 10.000000 0.000000 0.000000
vt 0.000000 4.284504 0.000000
vt 10.000000 4.284504 0.000000
vt 0.000000 0.000000 0.000000
vt 10.000000 0.000000 0.000000
vt 0.000000 10.000000 0.000000
vt 10.000000 10.000000 0.000000
vt 2.500000 10.000000 0.000000
vt 3.500000 8.000000 0.000000
vt 5.000000 10.000000 0.000000
vt 3.500000 5.222326 0.000000
vt 5.000000 0.000000 0.000000
vt 0.000000 0.000000 0.000000
vt 0.000000 4.284504 0.000000
vt -5.000000 -2.500000 0.000000
vt 5.000000 -2.500000 0.000000
vt -5.000000 2.500000 0.000000
vt 5.000000 2.500000 0.000000
vn 0.000000 -0.894427 -0.447214
vn 0.000000 -0.894427 -0.447214
vn 0.000000 -0.894427 -0.447214
vn 0.000000 -0.894427 -0.447214
vn -1.000000 0.000000 0.000000
vn -1.000000 0.000000 0.000000
vn -1.000000 0.000000 0.000000
vn -1.000000 0.000000 0.000000
vn -1.000000 0.000000 0.000000
vn -1.000000 0.000000 0.000000
vn -1.000000 0.000000 0.000000
vn 0.000000 -1.000000 0.000000
vn 0.000000 -1.000000 0.000000
vn 0.000000 -1.000000 0.000000
vn 0.000000 -1.000000 0.000000
vn 0.000000 0.000000 1.000000
vn 0.000000 0.000000 1.000000
vn 0.000000 0.000000 1.000000
vn 0.000000 0.000000 1.000000
vn 0.000000 -0.258819 0.965926
vn 0.000000 -0.258819 0.965926
vn 0.000000 -0.258819 0.965926
vn 0.000000 -0.258819 0.965926
vn 0.000000 -1.000000 0.000000
vn 0.000000 -1.000000 0.000000
vn 0.000000 -1.000000 0.000000
vn 0.000000 -1.000000 0.000000
vn 0.000000 1.000000 -0.000000
vn 0.000000 1.000000 -0.000000
vn 0.000000 1.000000 -0.000000
vn 0.000000 1.000000 -0.000000
vn 1.000000 0.000000 0.000000
vn 1.000000 0.000000 0.000000
vn 1.000000 0.000000 0.000000
vn 1.000000 0.000000 0.000000
vn 1.000000 0.000000 0.000000
vn 1.000000 0.000000 0.000000
vn 1.000000 0.000000 0.000000
vn -0.000000 -0.000000 -1.000000
vn -0.000000 -0.000000 -1.000000
vn -0.000000 -0.000000 -1.000000
vn -0.000000 -0.000000 -1.000000
usemtl Steel_-_Satin
f 1/1/1 2/2/2 4/3/3
f 4/3/3 2/2/2 3/4/4
f 3/5/5 5/6/6 4/7/7
f 4/7/7 5/6/6 9/8/8
f 9/8/8 5/6/6 6/9/9
f 9/8/8 6/9/9 7/10/10
f 7/10/10 8/11/11 9/8/8
f 1/12/12 4/13/13 10/14/14
f 10/14/14 4/13/13 9/15/15
f 11/16/16 5/17/17 2/18/18
f 2/18/18 5/17/17 3/19/19
f 10/20/20 9/21/21 12/22/22
f 12/22/22 9/21/21 8/23/23
f 7/24/24 13/25/25 8/26/26
f 8/26/26 13/25/25 12/27/27
f 14/28/28 6/29/29 11/30/30
f 11/30/30 6/29/29 5/31/31
f 2/32/32 1/33/33 11/34/34
f 11/34/34 1/33/33 10/35/35
f 11/34/34 10/35/35 14/36/36
f 14/36/36 10/35/35 13/37/37
f 13/37/37 10/35/35 12/38/38
f 13/39/39 7/40/40 14/41/41
f 14/41/41 7/40/40 6/42/42
# 14 vertices
# 42 texture params
# 42 normals
# 24 facets

# 1 groups
